<svg id="svg" version="1.1" xmlns="http://www.w3.org/2000/svg" xmlns:xlink="http://www.w3.org/1999/xlink" width="400" height="310.6145251396648" viewBox="0, 0, 400,310.6145251396648"><g id="svgg"><path id="path0" d="M105.983 186.708 C 101.150 187.603,96.387 192.029,94.797 197.102 C 93.846 200.134,93.821 289.729,94.770 292.699 C 96.484 298.062,99.986 301.493,105.517 303.224 C 108.398 304.125,197.103 304.134,199.952 303.233 C 205.169 301.583,208.123 298.977,210.398 294.017 L 211.182 292.308 211.270 247.593 C 211.367 198.417,211.527 202.020,209.256 202.020 C 202.133 202.020,195.165 195.269,194.501 187.723 L 194.406 186.636 150.583 186.600 C 126.480 186.580,106.410 186.629,105.983 186.708 " stroke="none" fill="#fafafa" fill-rule="evenodd"></path><path id="path1" d="M206.760 169.611 C 206.546 169.687,206.371 169.947,206.371 170.189 C 206.371 170.516,205.930 170.629,204.662 170.629 C 203.350 170.629,202.953 170.738,202.953 171.096 C 202.953 171.405,202.643 171.562,202.031 171.562 C 201.428 171.562,200.995 171.776,200.777 172.183 C 200.594 172.525,200.239 172.805,199.989 172.805 C 199.739 172.805,199.534 173.015,199.534 173.271 C 199.534 173.528,199.375 173.737,199.181 173.737 C 198.691 173.737,197.358 175.226,197.358 175.774 C 197.358 176.021,197.078 176.224,196.737 176.224 C 196.395 176.224,196.115 176.364,196.115 176.535 C 196.115 176.706,195.835 177.125,195.493 177.467 C 195.152 177.809,194.872 178.373,194.872 178.720 C 194.872 179.067,194.662 179.432,194.406 179.530 C 193.764 179.777,193.808 181.498,194.468 181.981 C 195.115 182.454,195.070 184.729,194.393 185.765 C 194.115 186.189,194.063 186.520,194.254 186.638 C 194.423 186.742,194.561 187.259,194.561 187.786 C 194.561 194.626,202.205 202.020,209.276 202.020 C 210.051 202.020,210.774 202.163,210.881 202.337 C 211.002 202.531,211.428 202.403,211.989 202.004 C 212.988 201.292,213.995 201.197,216.706 201.558 C 217.964 201.726,218.493 201.693,218.493 201.446 C 218.493 201.254,218.982 200.892,219.580 200.642 C 220.179 200.392,220.668 200.040,220.668 199.860 C 220.668 199.681,220.869 199.534,221.113 199.534 C 221.358 199.534,221.648 199.254,221.756 198.912 C 221.865 198.570,222.154 198.291,222.399 198.291 C 222.643 198.291,222.844 198.081,222.844 197.824 C 222.844 197.568,223.039 197.358,223.277 197.358 C 223.752 197.358,224.087 196.705,224.087 195.779 C 224.087 195.451,224.297 195.183,224.553 195.183 C 224.877 195.183,225.019 194.857,225.019 194.116 C 225.019 193.322,225.178 192.998,225.641 192.852 C 226.188 192.678,226.263 192.381,226.263 190.377 C 226.263 188.640,226.373 188.058,226.729 187.922 C 227.336 187.689,227.342 185.861,226.739 185.063 C 226.457 184.690,226.279 183.736,226.273 182.566 C 226.265 181.074,226.130 180.552,225.641 180.109 C 225.299 179.799,225.019 179.228,225.019 178.840 C 225.019 178.451,224.810 177.923,224.553 177.667 C 224.297 177.410,224.087 176.981,224.087 176.712 C 224.087 176.431,223.823 176.224,223.465 176.224 C 223.051 176.224,222.844 176.017,222.844 175.602 C 222.844 175.260,222.643 174.981,222.399 174.981 C 222.154 174.981,221.865 174.701,221.756 174.359 C 221.648 174.017,221.358 173.737,221.113 173.737 C 220.869 173.737,220.668 173.528,220.668 173.271 C 220.668 173.012,220.392 172.805,220.047 172.805 C 219.705 172.805,219.425 172.610,219.425 172.372 C 219.425 171.903,218.774 171.562,217.879 171.562 C 217.569 171.562,217.235 171.352,217.137 171.096 C 217.014 170.776,216.515 170.629,215.550 170.629 C 214.547 170.629,213.959 170.447,213.508 169.995 C 212.901 169.389,208.149 169.118,206.760 169.611 " stroke="none" fill="#f46424" fill-rule="evenodd"></path><path id="path2" d="M194.540 184.460 L 194.406 185.392 150.427 185.561 C 111.047 185.713,106.287 185.783,104.895 186.233 C 101.816 187.230,99.639 188.644,97.375 191.116 C 96.233 192.363,95.705 193.254,94.062 196.706 C 93.800 197.256,93.706 209.947,93.706 244.880 L 93.706 292.308 94.447 294.250 C 94.855 295.319,95.309 296.193,95.457 296.193 C 95.605 296.193,95.726 296.397,95.726 296.648 C 95.726 297.906,101.284 302.697,103.343 303.214 C 103.832 303.337,104.591 303.624,105.030 303.853 C 105.686 304.196,114.133 304.270,152.653 304.272 L 199.478 304.274 201.293 303.600 C 205.556 302.017,209.143 298.691,210.790 294.794 C 212.322 291.168,212.277 292.669,212.277 245.991 L 212.277 202.366 212.967 201.882 C 213.419 201.566,213.500 201.401,213.200 201.406 C 212.949 201.409,212.431 201.654,212.049 201.949 L 211.356 202.486 211.269 247.397 L 211.182 292.308 210.398 294.017 C 208.123 298.977,205.169 301.583,199.952 303.233 C 197.103 304.134,108.398 304.125,105.517 303.224 C 99.986 301.493,96.484 298.062,94.770 292.699 C 93.821 289.729,93.846 200.134,94.797 197.102 C 96.145 192.800,99.225 189.410,103.497 187.526 L 105.517 186.636 149.724 186.553 L 193.932 186.470 194.426 185.716 C 194.697 185.301,194.865 184.639,194.797 184.245 C 194.690 183.621,194.657 183.650,194.540 184.460 " stroke="none" fill="#545454" fill-rule="evenodd"></path><path id="path3" d="M105.750 1.776 C 105.138 1.854,104.740 2.080,104.740 2.351 C 104.740 2.680,104.326 2.797,103.157 2.797 C 101.835 2.797,101.547 2.900,101.411 3.419 C 101.290 3.881,100.987 4.040,100.230 4.040 C 99.612 4.040,99.142 4.223,99.033 4.507 C 98.935 4.763,98.640 4.973,98.378 4.973 C 98.109 4.973,97.902 5.243,97.902 5.594 C 97.902 6.009,97.695 6.216,97.280 6.216 C 96.939 6.216,96.659 6.409,96.659 6.646 C 96.659 6.882,96.379 7.149,96.037 7.238 C 95.695 7.328,95.416 7.624,95.416 7.896 C 95.416 8.169,95.206 8.392,94.949 8.392 C 94.690 8.392,94.483 8.668,94.483 9.013 C 94.483 9.428,94.276 9.635,93.862 9.635 C 93.411 9.635,93.240 9.842,93.240 10.390 C 93.240 10.805,93.030 11.354,92.774 11.611 C 92.517 11.867,92.308 12.490,92.308 12.995 C 92.308 13.652,92.131 13.960,91.686 14.076 C 91.139 14.219,91.064 14.500,91.064 16.405 C 91.064 17.952,90.931 18.683,90.598 18.959 C 90.188 19.299,90.132 24.689,90.132 64.025 C 90.132 103.360,90.188 108.750,90.598 109.091 C 90.939 109.374,91.064 110.125,91.064 111.890 C 91.064 114.041,91.132 114.320,91.686 114.465 C 92.162 114.589,92.308 114.889,92.308 115.744 C 92.308 116.530,92.446 116.861,92.774 116.861 C 93.030 116.861,93.240 117.129,93.240 117.457 C 93.240 118.383,93.575 119.037,94.050 119.037 C 94.288 119.037,94.483 119.192,94.483 119.381 C 94.483 119.859,95.797 121.200,96.270 121.207 C 96.484 121.210,96.659 121.435,96.659 121.707 C 96.659 121.980,96.939 122.276,97.280 122.365 C 97.622 122.455,97.902 122.721,97.902 122.958 C 97.902 123.242,98.271 123.388,98.990 123.388 C 99.870 123.388,100.078 123.506,100.078 124.009 C 100.078 124.513,100.285 124.631,101.166 124.631 C 101.884 124.631,102.253 124.777,102.253 125.061 C 102.253 125.605,103.215 125.864,105.246 125.870 C 106.279 125.873,106.975 126.038,107.226 126.340 C 107.814 127.049,197.703 127.049,198.291 126.340 C 198.546 126.033,199.241 125.874,200.334 125.874 C 201.981 125.874,203.574 125.391,203.574 124.892 C 203.574 124.748,203.924 124.631,204.351 124.631 C 204.779 124.631,205.408 124.351,205.750 124.009 C 206.092 123.667,206.581 123.388,206.838 123.388 C 207.094 123.388,207.304 123.178,207.304 122.922 C 207.304 122.665,207.426 122.455,207.576 122.455 C 207.974 122.455,210.723 119.759,210.723 119.369 C 210.723 119.186,210.932 119.037,211.189 119.037 C 211.445 119.037,211.655 118.773,211.655 118.451 C 211.655 118.127,211.933 117.793,212.277 117.703 C 212.729 117.585,212.898 117.279,212.898 116.579 C 212.898 115.932,213.050 115.618,213.364 115.618 C 213.721 115.618,213.831 115.225,213.831 113.945 C 213.831 112.533,213.928 112.246,214.452 112.109 C 215.070 111.947,215.074 111.685,215.074 64.230 C 215.074 16.787,215.070 16.513,214.452 16.317 C 213.944 16.156,213.831 15.847,213.831 14.620 C 213.831 13.573,213.690 13.066,213.364 12.941 C 213.088 12.835,212.898 12.368,212.898 11.791 C 212.898 11.081,212.731 10.776,212.277 10.657 C 211.878 10.553,211.655 10.233,211.655 9.765 C 211.655 9.353,211.384 8.890,211.033 8.702 C 210.692 8.519,210.412 8.165,210.412 7.914 C 210.412 7.664,210.202 7.459,209.946 7.459 C 209.689 7.459,209.479 7.245,209.479 6.983 C 209.479 6.721,209.245 6.417,208.959 6.308 C 208.673 6.198,208.184 5.853,207.871 5.540 C 207.559 5.228,207.024 4.973,206.682 4.973 C 206.337 4.973,206.061 4.766,206.061 4.507 C 206.061 4.184,205.737 4.040,205.009 4.040 C 204.219 4.040,203.917 3.886,203.795 3.419 C 203.669 2.936,203.371 2.797,202.462 2.797 C 201.784 2.797,201.040 2.569,200.691 2.253 C 200.126 1.741,109.620 1.287,105.750 1.776 M288.172 1.778 C 287.606 1.849,287.067 2.107,286.973 2.352 C 286.856 2.656,286.311 2.797,285.252 2.797 C 283.964 2.797,283.675 2.902,283.540 3.419 C 283.418 3.886,283.116 4.040,282.326 4.040 C 281.598 4.040,281.274 4.184,281.274 4.507 C 281.274 4.766,280.998 4.973,280.653 4.973 C 280.238 4.973,280.031 5.180,280.031 5.594 C 280.031 6.009,279.824 6.216,279.409 6.216 C 279.068 6.216,278.788 6.409,278.788 6.646 C 278.788 6.882,278.508 7.149,278.166 7.238 C 277.824 7.328,277.545 7.624,277.545 7.896 C 277.545 8.169,277.335 8.392,277.078 8.392 C 276.822 8.392,276.612 8.655,276.612 8.977 C 276.612 9.301,276.335 9.635,275.991 9.725 C 275.538 9.843,275.369 10.149,275.369 10.849 C 275.369 11.496,275.217 11.810,274.903 11.810 C 274.580 11.810,274.437 12.134,274.437 12.862 C 274.437 13.652,274.282 13.954,273.815 14.076 C 273.248 14.224,273.193 14.500,273.193 17.202 C 273.193 18.842,273.055 20.251,272.883 20.357 C 272.678 20.484,272.572 35.480,272.572 64.336 C 272.572 93.191,272.678 108.187,272.883 108.314 C 273.054 108.420,273.193 109.770,273.193 111.314 C 273.193 113.861,273.251 114.137,273.815 114.284 C 274.302 114.412,274.437 114.708,274.437 115.654 C 274.437 116.490,274.573 116.861,274.878 116.861 C 275.121 116.861,275.414 117.290,275.529 117.814 C 275.644 118.339,275.935 118.843,276.175 118.935 C 276.416 119.028,276.612 119.243,276.612 119.414 C 276.612 119.866,277.943 121.200,278.399 121.207 C 278.613 121.210,278.788 121.435,278.788 121.707 C 278.788 121.980,279.068 122.276,279.409 122.365 C 279.751 122.455,280.031 122.721,280.031 122.958 C 280.031 123.242,280.400 123.388,281.119 123.388 C 281.999 123.388,282.207 123.506,282.207 124.009 C 282.207 124.513,282.414 124.631,283.294 124.631 C 284.013 124.631,284.382 124.777,284.382 125.061 C 284.382 125.598,285.331 125.862,287.335 125.880 C 288.199 125.888,289.157 126.096,289.492 126.350 C 290.404 127.040,379.370 127.040,380.282 126.350 C 380.659 126.065,381.615 125.890,382.828 125.884 C 384.348 125.876,384.906 125.739,385.392 125.253 C 385.734 124.911,386.362 124.631,386.788 124.631 C 387.226 124.631,387.731 124.361,387.951 124.009 C 388.164 123.667,388.585 123.388,388.886 123.388 C 389.187 123.388,389.433 123.178,389.433 122.922 C 389.433 122.665,389.648 122.455,389.911 122.455 C 390.487 122.455,392.852 120.040,392.852 119.452 C 392.852 119.224,393.061 119.037,393.318 119.037 C 393.574 119.037,393.784 118.773,393.784 118.451 C 393.784 118.127,394.062 117.793,394.406 117.703 C 394.858 117.585,395.027 117.279,395.027 116.579 C 395.027 115.932,395.179 115.618,395.493 115.618 C 395.851 115.618,395.960 115.221,395.960 113.908 C 395.960 112.406,396.035 112.199,396.581 112.199 C 397.200 112.199,397.203 111.992,397.203 64.228 C 397.203 16.653,397.198 16.253,396.581 15.695 C 396.193 15.344,395.960 14.738,395.960 14.083 C 395.960 13.437,395.780 12.965,395.493 12.855 C 395.223 12.751,395.027 12.286,395.027 11.748 C 395.027 11.081,394.852 10.774,394.406 10.657 C 393.970 10.543,393.784 10.233,393.784 9.620 C 393.784 9.017,393.590 8.683,393.162 8.547 C 392.821 8.438,392.541 8.149,392.541 7.904 C 392.541 7.660,392.331 7.459,392.075 7.459 C 391.818 7.459,391.608 7.236,391.608 6.964 C 391.608 6.691,391.329 6.395,390.987 6.306 C 390.645 6.217,390.365 5.956,390.365 5.728 C 390.365 5.498,389.877 5.220,389.277 5.108 C 388.654 4.991,388.190 4.719,388.190 4.472 C 388.190 4.219,387.869 4.040,387.415 4.040 C 386.977 4.040,386.472 3.770,386.253 3.419 C 385.971 2.968,385.528 2.797,384.643 2.797 C 383.915 2.797,383.178 2.577,382.820 2.253 C 382.254 1.740,292.075 1.287,288.172 1.778 M108.469 181.507 C 108.469 181.694,107.226 181.818,105.361 181.818 C 102.806 181.818,102.253 181.901,102.253 182.284 C 102.253 182.606,101.931 182.751,101.214 182.751 C 100.569 182.751,99.960 182.987,99.611 183.372 C 99.302 183.714,98.791 183.994,98.476 183.994 C 98.160 183.994,97.902 184.204,97.902 184.460 C 97.902 184.716,97.657 184.926,97.358 184.926 C 96.554 184.926,93.240 188.151,93.240 188.933 C 93.240 189.308,93.041 189.588,92.774 189.588 C 92.517 189.588,92.308 189.852,92.308 190.174 C 92.308 190.498,92.030 190.831,91.686 190.921 C 91.233 191.040,91.064 191.345,91.064 192.045 C 91.064 192.654,90.908 193.007,90.637 193.007 C 90.228 193.007,89.821 194.276,89.821 195.554 C 89.821 195.887,89.611 196.369,89.355 196.626 C 88.989 196.992,88.889 197.953,88.889 201.110 C 88.889 204.768,88.684 205.744,88.112 204.817 C 87.846 204.388,7.259 204.388,6.993 204.817 C 6.887 204.988,6.109 205.128,5.262 205.128 C 4.108 205.128,3.590 205.284,3.191 205.750 C 2.899 206.092,2.557 206.371,2.433 206.371 C 1.913 206.371,0.622 207.892,0.622 208.505 C 0.622 208.870,0.482 209.169,0.311 209.169 C 0.119 209.169,0.000 210.774,0.000 213.364 C 0.000 215.954,0.119 217.560,0.311 217.560 C 0.482 217.560,0.622 217.993,0.622 218.522 C 0.622 219.222,0.791 219.527,1.243 219.646 C 1.585 219.735,1.865 220.002,1.865 220.238 C 1.865 220.475,2.145 220.668,2.486 220.668 C 2.828 220.668,3.108 220.862,3.108 221.098 C 3.108 221.882,4.234 221.903,46.698 221.907 L 88.889 221.911 88.889 223.621 L 88.889 225.330 59.396 225.330 C 34.697 225.330,29.877 225.399,29.740 225.756 C 29.650 225.991,29.191 226.279,28.720 226.398 C 27.511 226.701,26.430 227.828,26.423 228.790 C 26.420 229.345,26.217 229.661,25.796 229.771 C 25.218 229.923,25.175 230.195,25.175 233.693 C 25.175 237.244,25.209 237.451,25.796 237.451 C 26.273 237.451,26.418 237.659,26.418 238.342 C 26.418 239.242,28.208 240.870,29.198 240.870 C 29.426 240.870,29.792 241.115,30.011 241.414 C 30.384 241.924,32.214 241.963,59.649 242.040 L 88.889 242.123 88.889 243.828 L 88.889 245.532 67.279 245.532 C 48.356 245.532,45.646 245.590,45.489 245.998 C 45.391 246.255,45.046 246.465,44.722 246.465 C 44.341 246.465,44.134 246.684,44.134 247.086 C 44.134 247.428,43.975 247.708,43.781 247.708 C 42.108 247.708,40.826 258.171,42.424 258.784 C 42.681 258.883,42.890 259.134,42.890 259.342 C 42.890 259.886,44.235 261.072,44.853 261.072 C 45.141 261.072,45.377 261.265,45.377 261.500 C 45.377 262.258,46.991 262.315,68.104 262.315 L 88.889 262.315 88.889 263.856 L 88.889 265.396 80.009 265.488 C 71.931 265.571,71.101 265.628,70.825 266.123 C 70.648 266.439,70.156 266.667,69.652 266.667 C 69.174 266.667,68.530 266.946,68.221 267.288 C 67.911 267.630,67.485 267.910,67.273 267.910 C 66.848 267.910,66.511 268.591,66.511 269.453 C 66.511 269.761,66.232 270.086,65.890 270.176 C 64.831 270.452,65.017 278.788,66.081 278.788 C 66.318 278.788,66.511 279.068,66.511 279.409 C 66.511 279.824,66.718 280.031,67.133 280.031 C 67.484 280.031,67.754 280.238,67.754 280.507 C 67.754 280.769,67.999 281.073,68.298 281.183 C 68.598 281.293,68.954 281.568,69.091 281.795 C 69.289 282.123,71.330 282.207,79.114 282.207 L 88.889 282.207 88.889 287.655 C 88.889 292.212,88.965 293.133,89.355 293.283 C 89.611 293.381,89.821 293.779,89.821 294.167 C 89.821 295.537,90.215 296.814,90.637 296.814 C 90.918 296.814,91.064 297.186,91.064 297.902 C 91.064 298.783,91.183 298.990,91.686 298.990 C 92.093 298.990,92.308 299.197,92.308 299.590 C 92.308 300.365,93.590 302.378,94.095 302.396 C 94.308 302.403,94.483 302.602,94.483 302.839 C 94.483 303.075,94.763 303.342,95.105 303.431 C 95.447 303.521,95.726 303.817,95.726 304.089 C 95.726 304.377,95.987 304.584,96.348 304.584 C 96.690 304.584,96.970 304.727,96.970 304.902 C 96.970 305.076,97.354 305.388,97.824 305.595 C 98.294 305.801,98.791 306.148,98.928 306.365 C 99.064 306.582,99.642 306.760,100.212 306.760 C 100.987 306.760,101.289 306.917,101.411 307.382 C 101.548 307.904,101.835 308.003,103.210 308.003 C 104.332 308.003,105.035 308.174,105.447 308.547 C 106.380 309.391,199.136 309.391,200.070 308.547 C 200.465 308.189,201.177 308.003,202.151 308.003 C 203.371 308.003,203.661 307.893,203.795 307.382 C 203.911 306.937,204.219 306.760,204.876 306.760 C 205.381 306.760,206.004 306.550,206.260 306.294 C 206.517 306.037,207.009 305.828,207.355 305.828 C 207.722 305.828,208.051 305.569,208.146 305.206 C 208.236 304.862,208.570 304.584,208.894 304.584 C 209.216 304.584,209.479 304.391,209.479 304.154 C 209.479 303.918,209.759 303.651,210.101 303.562 C 210.443 303.472,210.723 303.176,210.723 302.904 C 210.723 302.632,210.932 302.409,211.189 302.409 C 211.448 302.409,211.655 302.132,211.655 301.787 C 211.655 301.373,211.862 301.166,212.277 301.166 C 212.691 301.166,212.898 300.958,212.898 300.544 C 212.898 300.199,213.105 299.922,213.364 299.922 C 213.690 299.922,213.831 299.594,213.831 298.834 C 213.831 297.954,213.949 297.747,214.452 297.747 C 214.981 297.747,215.074 297.539,215.074 296.364 C 215.074 295.369,215.227 294.895,215.618 294.676 C 216.349 294.267,216.640 201.709,215.909 201.709 C 215.682 201.709,214.841 201.932,214.041 202.205 L 212.587 202.700 212.585 246.882 C 212.584 285.467,212.525 291.177,212.119 291.955 C 211.864 292.444,211.653 293.144,211.650 293.509 C 211.648 293.874,211.447 294.522,211.203 294.949 C 210.959 295.377,210.560 296.146,210.316 296.659 C 210.072 297.172,209.504 297.983,209.054 298.462 C 208.604 298.941,208.236 299.389,208.236 299.458 C 208.236 299.633,206.686 301.166,206.509 301.166 C 206.430 301.166,205.669 301.655,204.817 302.253 C 203.966 302.852,203.090 303.341,202.870 303.341 C 202.649 303.341,202.124 303.586,201.701 303.885 C 200.508 304.729,104.826 304.729,103.893 303.885 C 103.563 303.586,102.998 303.341,102.640 303.341 C 102.281 303.341,101.777 303.131,101.521 302.875 C 101.264 302.618,100.919 302.409,100.754 302.409 C 100.200 302.409,96.033 298.303,95.851 297.577 C 95.751 297.182,95.473 296.784,95.232 296.691 C 94.991 296.599,94.793 296.344,94.792 296.125 C 94.791 295.906,94.568 295.307,94.297 294.794 C 92.993 292.328,92.940 290.393,92.946 244.911 C 92.951 200.952,93.028 197.642,94.086 195.649 C 94.268 195.307,94.577 194.678,94.773 194.250 C 95.434 192.809,95.922 192.118,97.591 190.260 C 98.342 189.425,100.932 187.413,101.257 187.413 C 101.421 187.413,101.718 187.217,101.916 186.979 C 102.113 186.740,102.795 186.448,103.430 186.329 C 104.065 186.211,104.781 185.951,105.021 185.753 C 105.345 185.485,116.801 185.353,149.776 185.237 L 194.095 185.082 194.189 183.788 C 194.263 182.772,194.134 182.355,193.587 181.846 L 192.890 181.197 150.680 181.197 C 122.747 181.197,108.469 181.302,108.469 181.507 M319.077 193.706 C 318.974 194.091,318.888 202.621,318.885 212.663 L 318.881 230.920 301.088 231.000 L 283.294 231.080 283.294 241.855 C 283.294 247.781,283.411 252.746,283.553 252.888 C 283.696 253.030,291.703 253.185,301.347 253.232 L 318.881 253.317 318.881 271.297 C 318.881 281.186,318.969 289.714,319.075 290.249 L 319.270 291.220 330.342 291.215 C 336.773 291.212,341.610 291.087,341.880 290.916 C 342.285 290.660,342.358 288.148,342.431 271.969 L 342.516 253.317 360.044 253.232 C 369.684 253.185,377.687 253.030,377.830 252.888 C 377.972 252.746,378.129 247.746,378.178 241.777 L 378.267 230.925 360.384 230.925 L 342.502 230.925 342.498 212.665 C 342.495 202.622,342.409 194.091,342.306 193.706 L 342.119 193.007 330.692 193.007 L 319.264 193.007 319.077 193.706 " stroke="none" fill="#040404" fill-rule="evenodd"></path><path id="path4" d="M194.080 183.424 L 194.095 185.082 149.776 185.237 C 116.801 185.353,105.345 185.485,105.021 185.753 C 104.781 185.951,104.065 186.211,103.430 186.329 C 102.795 186.448,102.113 186.740,101.916 186.979 C 101.718 187.217,101.421 187.413,101.257 187.413 C 100.932 187.413,98.342 189.425,97.591 190.260 C 95.924 192.116,95.438 192.804,94.771 194.250 C 94.574 194.678,94.219 195.398,93.982 195.852 C 93.745 196.306,93.570 197.145,93.593 197.717 C 93.627 198.537,93.662 198.592,93.762 197.980 C 94.047 196.219,95.866 192.763,97.375 191.116 C 99.773 188.497,102.073 187.097,105.699 186.050 C 107.261 185.598,111.813 185.548,150.825 185.548 C 174.689 185.548,194.273 185.443,194.346 185.315 C 194.762 184.586,194.836 182.820,194.471 182.321 C 194.119 181.840,194.067 181.987,194.080 183.424 M93.127 200.354 C 92.838 202.465,92.931 288.327,93.224 289.977 C 93.361 290.746,93.491 270.571,93.512 245.144 C 93.533 219.716,93.500 198.912,93.438 198.912 C 93.376 198.912,93.236 199.561,93.127 200.354 M212.930 201.943 L 212.272 202.486 212.181 246.620 C 212.131 270.894,211.974 291.173,211.833 291.686 C 211.618 292.471,211.645 292.555,212.005 292.214 C 212.363 291.876,212.445 284.584,212.513 247.250 L 212.594 202.690 214.145 202.175 C 214.998 201.891,215.695 201.601,215.695 201.529 C 215.695 201.148,213.494 201.477,212.930 201.943 M93.587 292.247 C 93.567 292.727,93.810 293.706,94.127 294.423 C 94.443 295.140,94.789 295.971,94.894 296.270 C 95.098 296.849,95.726 297.025,95.726 296.503 C 95.726 296.333,95.605 296.193,95.457 296.193 C 95.210 296.193,94.106 293.453,93.768 291.997 C 93.662 291.542,93.613 291.609,93.587 292.247 M211.150 293.802 C 210.965 294.348,210.698 295.074,210.555 295.416 C 210.325 295.966,210.355 295.989,210.812 295.618 C 211.289 295.230,211.887 293.213,211.607 292.933 C 211.540 292.866,211.334 293.257,211.150 293.802 M209.375 297.329 C 207.653 299.999,204.591 302.375,201.293 303.600 L 199.478 304.274 152.653 304.272 C 111.723 304.270,105.715 304.211,104.937 303.805 C 103.739 303.180,103.241 303.219,103.907 303.885 C 104.421 304.398,107.163 304.429,152.692 304.429 C 198.135 304.429,200.977 304.397,201.701 303.885 C 202.124 303.586,202.649 303.341,202.870 303.341 C 203.090 303.341,203.966 302.852,204.817 302.253 C 205.669 301.655,206.430 301.166,206.509 301.166 C 206.782 301.166,208.236 299.583,208.236 299.287 C 208.236 299.123,208.357 298.990,208.505 298.990 C 208.876 298.990,210.546 296.534,210.325 296.313 C 210.226 296.215,209.799 296.672,209.375 297.329 M95.726 297.557 C 95.726 297.983,100.285 302.409,100.724 302.409 C 100.906 302.409,101.264 302.618,101.521 302.875 C 101.777 303.131,102.292 303.339,102.664 303.337 C 103.150 303.334,102.949 303.137,101.949 302.637 C 101.183 302.255,99.470 300.881,98.142 299.583 C 96.813 298.286,95.726 297.374,95.726 297.557 " stroke="none" fill="#2c2c2c" fill-rule="evenodd"></path></g></svg>