<svg id="svg" version="1.1" xmlns="http://www.w3.org/2000/svg" xmlns:xlink="http://www.w3.org/1999/xlink" width="400" height="300" viewBox="0, 0, 400,400"><g id="svgg"><path id="path0" d="M116.000 221.602 C 111.992 222.294,108.882 225.066,107.474 229.200 C 106.891 230.915,106.891 294.285,107.474 296.000 C 108.739 299.714,111.086 302.061,114.800 303.326 C 116.515 303.909,179.885 303.909,181.600 303.326 C 185.255 302.081,187.668 299.697,188.952 296.059 C 189.264 295.176,189.296 292.615,189.350 263.880 L 189.408 232.660 187.654 232.545 C 182.153 232.187,177.972 228.171,177.469 222.763 L 177.343 221.400 147.121 221.424 C 130.500 221.436,116.495 221.517,116.000 221.602 M128.815 250.385 L 129.400 250.969 129.985 250.385 L 130.569 249.800 135.400 249.800 L 140.231 249.800 140.815 250.385 L 141.400 250.969 141.985 250.385 L 142.569 249.800 147.400 249.800 L 152.231 249.800 152.815 250.385 L 153.400 250.969 153.985 250.385 L 154.569 249.800 159.400 249.800 L 164.231 249.800 164.815 250.385 L 165.400 250.969 165.985 250.385 L 166.569 249.800 171.400 249.800 L 176.231 249.800 176.815 250.385 L 177.400 250.969 177.400 256.200 L 177.400 261.431 176.815 262.015 C 176.251 262.579,176.164 262.600,174.331 262.600 L 172.431 262.600 173.015 263.185 L 173.600 263.769 173.600 269.000 L 173.600 274.231 173.015 274.815 L 172.431 275.400 167.600 275.400 L 162.769 275.400 162.185 274.815 L 161.600 274.231 161.015 274.815 L 160.431 275.400 155.600 275.400 L 150.769 275.400 150.185 274.815 L 149.600 274.231 149.015 274.815 L 148.431 275.400 143.600 275.400 L 138.769 275.400 138.185 274.815 L 137.600 274.231 137.015 274.815 L 136.431 275.400 131.600 275.400 L 126.769 275.400 126.185 274.815 L 125.600 274.231 125.600 269.000 L 125.600 263.769 126.185 263.185 L 126.769 262.600 122.669 262.600 L 118.569 262.600 117.985 262.015 L 117.400 261.431 117.400 256.200 L 117.400 250.969 117.985 250.385 L 118.569 249.800 123.400 249.800 L 128.231 249.800 128.815 250.385 M121.792 253.050 C 119.072 254.422,119.546 258.600,122.423 258.600 C 123.069 258.600,123.393 258.693,123.472 258.900 C 123.604 259.242,124.800 259.320,124.800 258.987 C 124.800 258.870,124.712 258.609,124.604 258.408 C 124.459 258.137,124.493 257.972,124.736 257.771 C 127.397 255.569,124.861 251.502,121.792 253.050 M147.324 253.150 C 147.210 253.535,146.200 258.348,146.200 258.503 C 146.200 258.882,147.604 258.551,147.697 258.150 C 147.914 257.216,148.800 253.002,148.800 252.903 C 148.800 252.600,147.418 252.831,147.324 253.150 M158.324 253.207 C 156.307 253.811,155.440 256.880,156.880 258.320 C 158.201 259.641,161.400 258.853,161.400 257.207 C 161.400 256.829,160.081 256.979,159.700 257.400 C 158.798 258.396,157.433 257.507,157.665 256.075 C 157.964 254.231,159.641 253.525,160.297 254.966 C 160.590 255.608,161.800 255.591,161.800 254.945 C 161.800 253.584,160.026 252.697,158.324 253.207 M133.107 253.650 C 133.052 253.898,132.870 254.713,132.703 255.462 C 132.275 257.385,132.312 257.743,133.007 258.438 C 133.826 259.257,135.874 259.217,136.725 258.366 C 137.160 257.931,138.156 254.533,138.195 253.350 C 138.198 253.268,137.891 253.200,137.513 253.200 C 136.744 253.200,136.797 253.100,136.289 255.500 C 135.905 257.311,135.583 257.800,134.776 257.800 C 133.890 257.800,133.784 257.332,134.209 255.295 C 134.415 254.308,134.588 253.433,134.592 253.350 C 134.614 252.931,133.204 253.216,133.107 253.650 M170.305 253.650 C 170.152 254.118,169.200 258.669,169.200 258.935 C 169.200 259.699,170.592 259.219,170.722 258.409 C 170.829 257.735,171.484 256.764,171.659 257.018 C 171.690 257.063,171.930 257.572,172.192 258.150 C 172.646 259.151,172.704 259.200,173.434 259.200 C 173.855 259.200,174.200 259.167,174.200 259.126 C 174.200 259.085,173.894 258.388,173.520 257.576 L 172.840 256.100 174.164 254.750 L 175.489 253.400 174.600 253.400 C 173.788 253.400,173.610 253.499,172.533 254.550 L 171.354 255.700 171.488 254.900 C 171.561 254.460,171.668 253.943,171.724 253.750 C 171.849 253.326,170.444 253.227,170.305 253.650 M123.839 254.150 C 124.683 255.134,124.353 256.600,123.287 256.600 C 122.651 256.600,122.603 256.641,122.714 257.086 C 122.876 257.728,122.125 257.577,121.665 256.874 C 120.770 255.509,122.811 252.953,123.839 254.150 M128.763 262.024 L 128.226 262.600 129.397 262.600 L 130.569 262.600 129.969 262.000 C 129.639 261.670,129.354 261.411,129.335 261.424 C 129.316 261.437,129.058 261.707,128.763 262.024 M140.763 262.024 L 140.226 262.600 141.397 262.600 L 142.569 262.600 141.969 262.000 C 141.639 261.670,141.354 261.411,141.335 261.424 C 141.316 261.437,141.058 261.707,140.763 262.024 M152.763 262.024 L 152.226 262.600 153.397 262.600 L 154.569 262.600 153.969 262.000 C 153.639 261.670,153.354 261.411,153.335 261.424 C 153.316 261.437,153.058 261.707,152.763 262.024 M164.763 262.024 L 164.226 262.600 165.397 262.600 L 166.569 262.600 165.969 262.000 C 165.639 261.670,165.354 261.411,165.335 261.424 C 165.316 261.437,165.058 261.707,164.763 262.024 M137.015 263.185 L 137.600 263.769 138.185 263.185 L 138.769 262.600 137.600 262.600 L 136.431 262.600 137.015 263.185 M149.015 263.185 L 149.600 263.769 150.185 263.185 L 150.769 262.600 149.600 262.600 L 148.431 262.600 149.015 263.185 M161.015 263.185 L 161.600 263.769 162.185 263.185 L 162.769 262.600 161.600 262.600 L 160.431 262.600 161.015 263.185 M130.281 268.050 C 129.653 269.178,128.920 270.483,128.651 270.950 L 128.162 271.800 128.944 271.800 C 129.643 271.800,129.762 271.725,130.065 271.089 C 130.561 270.049,132.261 270.094,132.363 271.150 C 132.421 271.757,132.475 271.800,133.175 271.800 L 133.925 271.800 133.578 268.950 C 133.388 267.382,133.224 266.078,133.216 266.050 C 133.207 266.022,132.800 266.000,132.311 266.000 L 131.423 266.000 130.281 268.050 M167.865 266.139 C 165.744 266.552,165.994 268.852,168.250 269.683 C 169.210 270.037,169.398 270.322,168.960 270.760 C 168.596 271.124,167.847 271.047,167.400 270.600 C 166.886 270.086,165.797 270.052,165.806 270.550 C 165.832 271.944,168.680 272.580,169.985 271.482 C 171.227 270.437,170.759 269.103,168.934 268.481 C 167.866 268.117,167.666 267.903,168.007 267.491 C 168.326 267.108,169.379 267.114,169.528 267.500 C 169.660 267.845,171.000 267.924,171.000 267.587 C 171.000 266.523,169.485 265.824,167.865 266.139 M141.595 266.450 C 141.592 266.588,141.335 267.893,141.023 269.350 L 140.457 272.000 141.200 272.000 C 141.913 272.000,141.950 271.965,142.122 271.150 C 142.293 270.335,142.333 270.298,143.100 270.247 C 145.072 270.115,145.800 269.506,145.800 267.985 C 145.800 266.575,145.248 266.200,143.173 266.200 C 142.051 266.200,141.598 266.272,141.595 266.450 M154.595 266.450 C 154.592 266.588,154.335 267.893,154.023 269.350 L 153.457 272.000 154.200 272.000 C 154.913 272.000,154.950 271.965,155.122 271.150 C 155.293 270.335,155.333 270.298,156.100 270.247 C 158.072 270.115,158.800 269.506,158.800 267.985 C 158.800 266.575,158.248 266.200,156.173 266.200 C 155.051 266.200,154.598 266.272,154.595 266.450 M144.160 267.440 C 144.803 268.083,144.085 269.200,143.030 269.200 C 142.578 269.200,142.557 269.150,142.682 268.369 C 142.875 267.160,143.492 266.772,144.160 267.440 M157.160 267.440 C 157.803 268.083,157.085 269.200,156.030 269.200 C 155.578 269.200,155.557 269.150,155.682 268.369 C 155.875 267.160,156.492 266.772,157.160 267.440 M132.200 268.400 C 132.200 269.379,132.187 269.400,131.597 269.400 L 130.993 269.400 131.500 268.400 C 131.779 267.850,132.050 267.400,132.103 267.400 C 132.157 267.400,132.200 267.850,132.200 268.400 " stroke="none" fill="#fbfbfb" fill-rule="evenodd"></path><path id="path1" d="M184.800 211.455 C 173.765 215.231,175.680 231.550,187.273 232.530 C 195.994 233.267,201.837 224.310,197.731 216.500 C 195.429 212.122,189.552 209.829,184.800 211.455 " stroke="none" fill="#f46424" fill-rule="evenodd"></path><path id="path2" d="M115.100 93.895 C 110.934 94.822,107.523 97.935,106.180 102.034 L 105.700 103.500 105.700 136.200 L 105.700 168.900 106.183 170.375 C 107.384 174.041,110.362 177.017,114.034 178.220 L 115.500 178.700 148.200 178.700 L 180.900 178.700 182.375 178.217 C 186.041 177.016,189.017 174.038,190.220 170.366 L 190.700 168.900 190.700 136.200 L 190.700 103.500 190.217 102.025 C 189.035 98.415,186.248 95.581,182.553 94.231 L 181.100 93.700 148.700 93.664 C 122.306 93.635,116.078 93.678,115.100 93.895 M242.500 93.895 C 238.334 94.822,234.923 97.935,233.580 102.034 L 233.100 103.500 233.100 136.200 L 233.100 168.900 233.583 170.375 C 234.784 174.041,237.762 177.017,241.434 178.220 L 242.900 178.700 275.600 178.700 L 308.300 178.700 309.775 178.217 C 313.441 177.016,316.417 174.038,317.620 170.366 L 318.100 168.900 318.100 136.200 L 318.100 103.500 317.617 102.025 C 316.435 98.415,313.648 95.581,309.953 94.231 L 308.500 93.700 276.100 93.664 C 249.706 93.635,243.478 93.678,242.500 93.895 M114.000 219.468 C 108.023 221.248,104.600 226.083,104.600 232.746 L 104.600 235.400 75.273 235.400 C 42.538 235.400,44.897 235.290,43.293 236.893 C 41.213 238.973,41.213 242.227,43.293 244.307 C 44.897 245.910,42.538 245.800,75.273 245.800 L 104.600 245.800 104.600 247.800 L 104.600 249.800 83.994 249.800 C 65.830 249.800,63.299 249.837,62.644 250.110 C 58.836 251.698,58.836 257.502,62.644 259.090 C 63.299 259.363,65.830 259.400,83.994 259.400 L 104.600 259.400 104.600 261.700 L 104.600 264.000 89.368 264.000 L 74.135 264.000 73.273 264.505 C 70.600 266.072,70.600 271.528,73.273 273.095 L 74.135 273.600 89.368 273.600 L 104.600 273.600 104.600 275.900 L 104.600 278.200 97.950 278.204 C 90.535 278.209,90.380 278.234,89.060 279.626 C 86.830 281.976,87.586 286.068,90.500 287.420 C 91.228 287.758,91.898 287.792,97.935 287.796 L 104.571 287.800 104.645 291.850 C 104.784 299.325,107.686 303.751,113.700 305.656 L 115.100 306.100 148.200 306.100 L 181.300 306.100 182.700 305.656 C 186.587 304.425,189.906 301.144,191.255 297.200 L 191.700 295.900 191.752 263.965 L 191.805 232.031 191.152 232.196 C 190.794 232.287,190.253 232.417,189.950 232.484 L 189.400 232.608 189.400 263.562 C 189.400 290.331,189.360 294.671,189.102 295.659 C 188.120 299.432,185.032 302.520,181.259 303.502 C 179.535 303.951,116.865 303.951,115.141 303.502 C 111.368 302.520,108.280 299.432,107.298 295.659 C 106.849 293.935,106.849 231.265,107.298 229.541 C 108.280 225.768,111.368 222.680,115.141 221.698 C 116.129 221.440,120.420 221.400,146.804 221.400 L 177.324 221.400 177.522 220.200 L 177.721 219.000 146.610 219.011 L 115.500 219.021 114.000 219.468 M265.600 240.100 L 265.600 253.400 252.900 253.400 L 240.200 253.400 240.200 260.300 L 240.200 267.200 252.900 267.200 L 265.600 267.200 265.600 280.700 L 265.600 294.200 272.600 294.200 L 279.600 294.200 279.600 280.700 L 279.600 267.200 292.300 267.200 L 305.000 267.200 305.000 260.300 L 305.000 253.400 292.300 253.400 L 279.600 253.400 279.600 240.100 L 279.600 226.800 272.600 226.800 L 265.600 226.800 265.600 240.100 M118.700 249.984 C 117.522 250.481,117.500 250.598,117.500 256.216 L 117.500 261.391 118.054 261.945 L 118.608 262.500 122.954 262.609 C 125.344 262.669,127.158 262.737,126.985 262.759 C 126.812 262.782,126.452 263.032,126.185 263.316 L 125.700 263.832 125.700 269.012 L 125.700 274.191 126.255 274.745 L 126.809 275.300 131.588 275.300 L 136.368 275.300 136.884 274.815 C 137.168 274.548,137.400 274.211,137.400 274.065 C 137.400 273.919,137.490 273.800,137.600 273.800 C 137.710 273.800,137.800 273.919,137.800 274.065 C 137.800 274.211,138.032 274.548,138.316 274.815 L 138.832 275.300 143.600 275.300 L 148.368 275.300 148.884 274.815 C 149.168 274.548,149.400 274.211,149.400 274.065 C 149.400 273.919,149.490 273.800,149.600 273.800 C 149.710 273.800,149.800 273.919,149.800 274.065 C 149.800 274.211,150.032 274.548,150.316 274.815 L 150.832 275.300 155.600 275.300 L 160.368 275.300 160.884 274.815 C 161.168 274.548,161.400 274.211,161.400 274.065 C 161.400 273.919,161.490 273.800,161.600 273.800 C 161.710 273.800,161.800 273.919,161.800 274.065 C 161.800 274.211,162.032 274.548,162.316 274.815 L 162.832 275.300 167.612 275.300 L 172.391 275.300 172.945 274.745 L 173.500 274.191 173.500 269.012 L 173.500 263.832 173.015 263.316 C 172.748 263.032,172.388 262.785,172.215 262.766 C 172.042 262.747,172.866 262.680,174.046 262.616 C 176.050 262.508,176.228 262.463,176.746 261.945 L 177.300 261.391 177.300 256.200 L 177.300 251.009 176.745 250.455 L 176.191 249.900 171.412 249.900 L 166.632 249.900 166.116 250.385 C 165.832 250.652,165.600 250.989,165.600 251.135 C 165.600 251.281,165.510 251.400,165.400 251.400 C 165.290 251.400,165.200 251.281,165.200 251.135 C 165.200 250.989,164.968 250.652,164.684 250.385 L 164.168 249.900 159.400 249.900 L 154.632 249.900 154.116 250.385 C 153.832 250.652,153.600 250.989,153.600 251.135 C 153.600 251.281,153.510 251.400,153.400 251.400 C 153.290 251.400,153.200 251.281,153.200 251.135 C 153.200 250.989,152.968 250.652,152.684 250.385 L 152.168 249.900 147.400 249.900 L 142.632 249.900 142.116 250.385 C 141.832 250.652,141.600 250.989,141.600 251.135 C 141.600 251.281,141.510 251.400,141.400 251.400 C 141.290 251.400,141.200 251.281,141.200 251.135 C 141.200 250.989,140.968 250.652,140.684 250.385 L 140.168 249.900 135.400 249.900 L 130.632 249.900 130.116 250.385 C 129.832 250.652,129.600 250.989,129.600 251.135 C 129.600 251.281,129.510 251.400,129.400 251.400 C 129.290 251.400,129.200 251.281,129.200 251.135 C 129.200 250.051,120.736 249.123,118.700 249.984 M124.607 252.903 C 126.084 253.667,126.218 256.281,124.860 257.833 C 124.638 258.087,124.619 258.263,124.784 258.570 C 125.103 259.167,125.072 259.200,124.200 259.200 C 123.760 259.200,123.400 259.110,123.400 259.000 C 123.400 258.890,123.076 258.800,122.680 258.800 C 119.442 258.800,118.880 254.503,121.900 252.833 C 122.478 252.514,123.925 252.551,124.607 252.903 M148.952 252.850 C 148.902 252.988,148.603 254.338,148.287 255.850 L 147.713 258.600 146.885 258.600 L 146.057 258.600 146.633 255.850 C 147.365 252.353,147.245 252.600,148.215 252.600 C 148.792 252.600,149.015 252.676,148.952 252.850 M134.750 253.250 C 134.197 254.736,133.927 257.252,134.292 257.519 C 135.263 258.229,135.714 257.696,136.253 255.200 C 136.728 253.005,137.026 252.660,138.095 253.070 C 138.414 253.193,137.582 257.336,137.085 258.094 C 136.433 259.090,134.815 259.463,133.510 258.917 C 132.331 258.424,132.160 257.586,132.703 254.963 C 133.121 252.943,133.083 253.000,134.015 253.000 C 134.594 253.000,134.815 253.075,134.750 253.250 M160.826 253.313 C 161.362 253.591,162.000 254.612,162.000 255.194 C 162.000 255.570,160.402 255.439,160.258 255.050 C 159.952 254.220,158.824 254.152,158.215 254.927 C 156.952 256.533,158.322 258.696,159.718 257.300 C 160.925 256.093,162.093 256.824,160.981 258.091 C 159.517 259.758,156.833 259.417,156.194 257.482 C 155.273 254.691,158.271 251.992,160.826 253.313 M171.737 254.059 C 171.672 254.532,171.557 255.094,171.481 255.309 C 171.406 255.524,171.922 255.138,172.627 254.450 C 173.812 253.297,173.979 253.200,174.800 253.200 L 175.689 253.200 174.307 254.593 L 172.925 255.985 173.648 257.593 L 174.371 259.200 173.483 259.200 C 172.619 259.200,172.583 259.174,172.151 258.250 C 171.908 257.728,171.682 257.260,171.649 257.212 C 171.505 256.996,170.946 257.819,170.822 258.428 C 170.695 259.052,170.624 259.104,169.825 259.162 C 169.075 259.217,168.979 259.178,169.070 258.862 C 169.127 258.663,169.421 257.308,169.722 255.850 L 170.270 253.200 171.062 253.200 L 171.854 253.200 171.737 254.059 M121.998 254.650 C 121.300 255.794,121.606 257.400,122.521 257.400 C 122.749 257.400,122.768 257.314,122.607 257.013 C 122.298 256.436,122.332 256.400,123.179 256.400 C 124.005 256.400,124.200 256.184,124.200 255.270 C 124.200 253.856,122.734 253.443,121.998 254.650 M129.600 261.265 C 129.600 261.559,130.333 262.288,130.800 262.459 C 130.965 262.519,130.335 262.568,129.400 262.568 C 128.465 262.568,127.835 262.519,128.000 262.459 C 128.467 262.288,129.200 261.559,129.200 261.265 C 129.200 261.119,129.290 261.000,129.400 261.000 C 129.510 261.000,129.600 261.119,129.600 261.265 M141.600 261.265 C 141.600 261.559,142.333 262.288,142.800 262.459 C 142.965 262.519,142.335 262.568,141.400 262.568 C 140.465 262.568,139.835 262.519,140.000 262.459 C 140.467 262.288,141.200 261.559,141.200 261.265 C 141.200 261.119,141.290 261.000,141.400 261.000 C 141.510 261.000,141.600 261.119,141.600 261.265 M153.600 261.265 C 153.600 261.559,154.333 262.288,154.800 262.459 C 154.965 262.519,154.335 262.568,153.400 262.568 C 152.465 262.568,151.835 262.519,152.000 262.459 C 152.467 262.288,153.200 261.559,153.200 261.265 C 153.200 261.119,153.290 261.000,153.400 261.000 C 153.510 261.000,153.600 261.119,153.600 261.265 M165.600 261.265 C 165.600 261.559,166.333 262.288,166.800 262.459 C 166.965 262.519,166.335 262.568,165.400 262.568 C 164.465 262.568,163.835 262.519,164.000 262.459 C 164.467 262.288,165.200 261.559,165.200 261.265 C 165.200 261.119,165.290 261.000,165.400 261.000 C 165.510 261.000,165.600 261.119,165.600 261.265 M139.000 262.741 C 138.533 262.912,137.800 263.641,137.800 263.935 C 137.800 264.081,137.710 264.200,137.600 264.200 C 137.490 264.200,137.400 264.081,137.400 263.935 C 137.400 263.641,136.667 262.912,136.200 262.741 C 136.035 262.681,136.665 262.632,137.600 262.632 C 138.535 262.632,139.165 262.681,139.000 262.741 M151.000 262.741 C 150.533 262.912,149.800 263.641,149.800 263.935 C 149.800 264.081,149.710 264.200,149.600 264.200 C 149.490 264.200,149.400 264.081,149.400 263.935 C 149.400 263.641,148.667 262.912,148.200 262.741 C 148.035 262.681,148.665 262.632,149.600 262.632 C 150.535 262.632,151.165 262.681,151.000 262.741 M163.000 262.741 C 162.533 262.912,161.800 263.641,161.800 263.935 C 161.800 264.081,161.710 264.200,161.600 264.200 C 161.490 264.200,161.400 264.081,161.400 263.935 C 161.400 263.641,160.667 262.912,160.200 262.741 C 160.035 262.681,160.665 262.632,161.600 262.632 C 162.535 262.632,163.165 262.681,163.000 262.741 M133.303 266.050 C 133.380 266.261,133.993 271.201,133.998 271.650 C 134.005 272.185,132.424 271.767,132.300 271.200 C 132.178 270.644,132.103 270.600,131.289 270.600 C 130.515 270.600,130.373 270.671,130.100 271.200 C 129.834 271.714,129.676 271.800,128.995 271.800 C 128.063 271.800,128.058 271.783,128.670 270.718 C 128.928 270.268,129.653 268.978,130.281 267.850 L 131.423 265.800 132.318 265.800 C 132.852 265.800,133.249 265.901,133.303 266.050 M144.890 266.283 C 147.165 267.234,145.788 270.400,143.100 270.400 C 142.380 270.400,142.332 270.451,142.113 271.450 C 142.006 271.937,140.400 272.366,140.400 271.907 C 140.400 271.856,140.670 270.548,141.000 269.000 C 141.330 267.452,141.600 266.144,141.600 266.093 C 141.600 265.871,144.275 266.026,144.890 266.283 M157.890 266.283 C 160.165 267.234,158.788 270.400,156.100 270.400 C 155.380 270.400,155.332 270.451,155.113 271.450 C 155.006 271.937,153.400 272.366,153.400 271.907 C 153.400 271.856,153.670 270.548,154.000 269.000 C 154.330 267.452,154.600 266.144,154.600 266.093 C 154.600 265.871,157.275 266.026,157.890 266.283 M170.171 266.285 C 170.743 266.581,171.290 267.492,171.091 267.815 C 170.870 268.172,169.774 268.012,169.416 267.570 C 169.146 267.237,168.944 267.171,168.520 267.277 C 167.652 267.495,167.945 268.039,169.168 268.479 C 170.452 268.941,170.897 269.519,170.715 270.490 C 170.313 272.634,166.311 272.761,165.703 270.650 C 165.543 270.097,166.962 269.972,167.400 270.500 C 167.783 270.962,169.000 270.898,169.000 270.416 C 169.000 270.134,168.740 269.946,168.024 269.708 C 166.813 269.306,166.320 268.782,166.320 267.900 C 166.320 266.359,168.525 265.434,170.171 266.285 M142.887 267.950 C 142.821 268.252,142.732 268.613,142.690 268.750 C 142.550 269.204,143.955 269.058,144.204 268.592 C 144.549 267.948,144.267 267.400,143.590 267.400 C 143.117 267.400,142.985 267.503,142.887 267.950 M155.887 267.950 C 155.821 268.252,155.732 268.613,155.690 268.750 C 155.550 269.204,156.955 269.058,157.204 268.592 C 157.549 267.948,157.267 267.400,156.590 267.400 C 156.117 267.400,155.985 267.503,155.887 267.950 M131.538 268.506 C 131.108 269.407,131.106 269.400,131.700 269.400 C 132.113 269.400,132.199 269.304,132.197 268.850 C 132.192 267.879,131.907 267.731,131.538 268.506 " stroke="none" fill="#040404" fill-rule="evenodd"></path><path id="path3" d="M147.331 252.750 C 147.280 252.832,147.635 252.900,148.119 252.900 C 148.604 252.900,149.000 252.832,149.000 252.750 C 149.000 252.668,148.645 252.600,148.212 252.600 C 147.778 252.600,147.382 252.668,147.331 252.750 M133.131 253.150 C 133.080 253.232,133.435 253.300,133.919 253.300 C 134.404 253.300,134.800 253.232,134.800 253.150 C 134.800 253.068,134.445 253.000,134.012 253.000 C 133.578 253.000,133.182 253.068,133.131 253.150 M136.731 253.150 C 136.680 253.232,137.026 253.300,137.500 253.300 C 137.974 253.300,138.320 253.232,138.269 253.150 C 138.218 253.068,137.872 253.000,137.500 253.000 C 137.128 253.000,136.782 253.068,136.731 253.150 M170.550 253.341 C 170.798 253.389,171.203 253.389,171.450 253.341 C 171.697 253.293,171.495 253.254,171.000 253.254 C 170.505 253.254,170.303 253.293,170.550 253.341 M174.253 253.344 C 174.557 253.389,175.007 253.388,175.253 253.341 C 175.499 253.293,175.250 253.256,174.700 253.257 C 174.150 253.259,173.949 253.298,174.253 253.344 M122.400 256.555 C 122.400 256.641,122.760 256.676,123.200 256.634 C 123.640 256.592,124.000 256.522,124.000 256.479 C 124.000 256.436,123.640 256.400,123.200 256.400 C 122.760 256.400,122.400 256.470,122.400 256.555 M131.326 265.958 C 131.272 266.045,131.559 266.085,131.964 266.047 C 133.201 265.929,133.347 265.848,132.362 265.823 C 131.846 265.810,131.380 265.871,131.326 265.958 M142.250 266.146 C 142.662 266.189,143.338 266.189,143.750 266.146 C 144.162 266.103,143.825 266.067,143.000 266.067 C 142.175 266.067,141.838 266.103,142.250 266.146 M155.250 266.146 C 155.663 266.189,156.338 266.189,156.750 266.146 C 157.163 266.103,156.825 266.067,156.000 266.067 C 155.175 266.067,154.838 266.103,155.250 266.146 M171.000 267.567 C 171.000 267.697,170.670 267.814,170.250 267.832 L 169.500 267.864 170.175 267.947 C 170.835 268.027,171.409 267.743,171.137 267.470 C 171.062 267.395,171.000 267.438,171.000 267.567 " stroke="none" fill="#5e5e5e" fill-rule="evenodd"></path><path id="path4" d="M160.000 256.879 C 160.000 256.922,160.360 256.992,160.800 257.034 C 161.240 257.076,161.600 257.041,161.600 256.955 C 161.600 256.870,161.240 256.800,160.800 256.800 C 160.360 256.800,160.000 256.836,160.000 256.879 M142.922 267.364 C 142.867 267.454,143.086 267.489,143.411 267.441 C 143.735 267.394,144.000 267.320,144.000 267.277 C 144.000 267.125,143.021 267.203,142.922 267.364 M155.922 267.364 C 155.867 267.454,156.086 267.489,156.411 267.441 C 156.735 267.394,157.000 267.320,157.000 267.277 C 157.000 267.125,156.021 267.203,155.922 267.364 M130.326 270.558 C 130.272 270.645,130.559 270.685,130.964 270.647 C 132.201 270.529,132.347 270.448,131.362 270.423 C 130.846 270.410,130.380 270.471,130.326 270.558 M167.850 272.138 C 168.043 272.188,168.358 272.188,168.550 272.138 C 168.743 272.088,168.585 272.046,168.200 272.046 C 167.815 272.046,167.658 272.088,167.850 272.138 " stroke="none" fill="#747474" fill-rule="evenodd"></path></g></svg>